REM DIRINDEX 1\2,1\3,1\4,1\5
REM DIRNAME cjc093,folder01,folder02,folder03,folder04
TITLE ""
FILE "Round-05-102-103.mp3" MP3
  TRACK 01 AUDIO
    TITLE "0:"
    INDEX 01 00:00:00
  TRACK 02 AUDIO
    TITLE "2:cjc093_1194"
    INDEX 01 00:00:01
  TRACK 03 AUDIO
    TITLE "0:"
    INDEX 01 00:01:05
  TRACK 04 AUDIO
    TITLE "3:cjc093_1195"
    INDEX 01 00:01:32
  TRACK 05 AUDIO
    TITLE "0:"
    INDEX 01 00:02:24
  TRACK 06 AUDIO
    TITLE "4:cjc093_1196"
    INDEX 01 00:03:27
  TRACK 07 AUDIO
    TITLE "0:"
    INDEX 01 00:07:02
  TRACK 08 AUDIO
    TITLE "3:cjc093_1197"
    INDEX 01 00:08:15
  TRACK 09 AUDIO
    TITLE "0:"
    INDEX 01 00:10:29
  TRACK 10 AUDIO
    TITLE "4:cjc093_1198"
    INDEX 01 00:11:23
  TRACK 11 AUDIO
    TITLE "0:"
    INDEX 01 00:14:68
  TRACK 12 AUDIO
    TITLE "2:cjc093_1199"
    INDEX 01 00:16:04
  TRACK 13 AUDIO
    TITLE "0:"
    INDEX 01 00:17:21
  TRACK 14 AUDIO
    TITLE "3:cjc093_1200"
    INDEX 01 00:17:57
  TRACK 15 AUDIO
    TITLE "0:"
    INDEX 01 00:19:15
  TRACK 16 AUDIO
    TITLE "4:cjc093_1201"
    INDEX 01 00:19:40
  TRACK 17 AUDIO
    TITLE "0:"
    INDEX 01 00:23:14
  TRACK 18 AUDIO
    TITLE "3:cjc093_1202"
    INDEX 01 00:24:22
  TRACK 19 AUDIO
    TITLE "0:"
    INDEX 01 00:25:29
  TRACK 20 AUDIO
    TITLE "4:cjc093_1203"
    INDEX 01 00:25:72
  TRACK 21 AUDIO
    TITLE "0:"
    INDEX 01 00:29:21
  TRACK 22 AUDIO
    TITLE "2:cjc093_1204"
    INDEX 01 00:30:14
  TRACK 23 AUDIO
    TITLE "0:"
    INDEX 01 00:31:29
  TRACK 24 AUDIO
    TITLE "3:cjc093_1205"
    INDEX 01 00:31:55
  TRACK 25 AUDIO
    TITLE "0:"
    INDEX 01 00:32:58
  TRACK 26 AUDIO
    TITLE "4:cjc093_1206"
    INDEX 01 00:33:34
  TRACK 27 AUDIO
    TITLE "0:"
    INDEX 01 00:36:74
  TRACK 28 AUDIO
    TITLE "2:cjc093_1207"
    INDEX 01 00:38:10
  TRACK 29 AUDIO
    TITLE "0:"
    INDEX 01 00:39:23
  TRACK 30 AUDIO
    TITLE "3:cjc093_1208"
    INDEX 01 00:39:72
  TRACK 31 AUDIO
    TITLE "0:"
    INDEX 01 00:42:29
  TRACK 32 AUDIO
    TITLE "4:cjc093_1209"
    INDEX 01 00:43:01
  TRACK 33 AUDIO
    TITLE "0:"
    INDEX 01 00:48:38
  TRACK 34 AUDIO
    TITLE "3:cjc093_1210"
    INDEX 01 00:49:45
  TRACK 35 AUDIO
    TITLE "0:"
    INDEX 01 00:50:72
  TRACK 36 AUDIO
    TITLE "4:cjc093_1211"
    INDEX 01 00:51:38
  TRACK 37 AUDIO
    TITLE "0:"
    INDEX 01 00:53:68
  TRACK 38 AUDIO
    TITLE "2:cjc093_1212"
    INDEX 01 00:55:04
  TRACK 39 AUDIO
    TITLE "0:"
    INDEX 01 00:56:02
  TRACK 40 AUDIO
    TITLE "3:cjc093_1213"
    INDEX 01 00:56:49
  TRACK 41 AUDIO
    TITLE "0:"
    INDEX 01 00:58:36
  TRACK 42 AUDIO
    TITLE "4:cjc093_1214"
    INDEX 01 00:59:12
  TRACK 43 AUDIO
    TITLE "0:"
    INDEX 01 01:02:50
  TRACK 44 AUDIO
    TITLE "3:cjc093_1215"
    INDEX 01 01:03:61
  TRACK 45 AUDIO
    TITLE "0:"
    INDEX 01 01:06:04
  TRACK 46 AUDIO
    TITLE "4:cjc093_1216"
    INDEX 01 01:06:38
  TRACK 47 AUDIO
    TITLE "0:"
    INDEX 01 01:10:18
  TRACK 48 AUDIO
    TITLE "2:cjc093_1217"
    INDEX 01 01:11:31
  TRACK 49 AUDIO
    TITLE "0:"
    INDEX 01 01:12:42
  TRACK 50 AUDIO
    TITLE "3:cjc093_1218"
    INDEX 01 01:12:71
  TRACK 51 AUDIO
    TITLE "0:"
    INDEX 01 01:13:59
  TRACK 52 AUDIO
    TITLE "4:cjc093_1219"
    INDEX 01 01:14:51
  TRACK 53 AUDIO
    TITLE "0:"
    INDEX 01 01:17:57
  TRACK 54 AUDIO
    TITLE "2:cjc093_1220"
    INDEX 01 01:18:68
  TRACK 55 AUDIO
    TITLE "0:"
    INDEX 01 01:21:33
  TRACK 56 AUDIO
    TITLE "3:cjc093_1221"
    INDEX 01 01:21:70
  TRACK 57 AUDIO
    TITLE "0:"
    INDEX 01 01:23:69
  TRACK 58 AUDIO
    TITLE "4:cjc093_1222"
    INDEX 01 01:24:30
  TRACK 59 AUDIO
    TITLE "0:"
    INDEX 01 01:28:65
  TRACK 60 AUDIO
    TITLE "2:cjc093_1223"
    INDEX 01 01:30:03
  TRACK 61 AUDIO
    TITLE "0:"
    INDEX 01 01:31:14
  TRACK 62 AUDIO
    TITLE "3:cjc093_1224"
    INDEX 01 01:31:59
  TRACK 63 AUDIO
    TITLE "0:"
    INDEX 01 01:32:57
  TRACK 64 AUDIO
    TITLE "4:cjc093_1225"
    INDEX 01 01:33:21
  TRACK 65 AUDIO
    TITLE "0:"
    INDEX 01 01:36:11
